<svg width="34" height="34" viewBox="0 0 34 34" fill="none" xmlns="http://www.w3.org/2000/svg">
<path fill-rule="evenodd" clip-rule="evenodd" d="M33.32 17.3865C33.32 16.181 33.2118 15.0219 33.0109 13.9092H17V20.4851H26.1491C25.755 22.6101 24.5573 24.4106 22.7568 25.616V29.8815H28.2509C31.4655 26.9219 33.32 22.5637 33.32 17.3865Z" fill="#4285F4"/>
<path fill-rule="evenodd" clip-rule="evenodd" d="M16.9999 34C21.59 34 25.4381 32.4777 28.2509 29.8814L22.7568 25.6159C21.2345 26.6359 19.2872 27.2386 16.9999 27.2386C12.5722 27.2386 8.82448 24.2482 7.48766 20.23H1.80811V24.6345C4.60538 30.1905 10.3545 34 16.9999 34Z" fill="#34A853"/>
<path fill-rule="evenodd" clip-rule="evenodd" d="M7.48774 20.2302C7.14774 19.2102 6.95456 18.1206 6.95456 17.0002C6.95456 15.8797 7.14774 14.7902 7.48774 13.7702V9.3656H1.80818C0.656819 11.6606 0 14.257 0 17.0002C0 19.7433 0.656819 22.3397 1.80818 24.6347L7.48774 20.2302Z" fill="#FBBC05"/>
<path fill-rule="evenodd" clip-rule="evenodd" d="M16.9999 6.7615C19.4959 6.7615 21.7368 7.61923 23.4986 9.30377L28.3745 4.42786C25.4304 1.68467 21.5822 0.00012207 16.9999 0.00012207C10.3545 0.00012207 4.60538 3.80967 1.80811 9.36559L7.48766 13.7701C8.82448 9.75196 12.5722 6.7615 16.9999 6.7615Z" fill="#EA4335"/>
</svg>
